<svg width="49" height="48" viewBox="0 0 49 48" fill="none" xmlns="http://www.w3.org/2000/svg">
<rect x="0.666626" width="48" height="48" rx="12" fill="#F2F2F7"/>
<path d="M23.4566 27.17C23.2566 27.17 23.0666 27.09 22.9266 26.95L20.5066 24.53C20.2166 24.24 20.2166 23.76 20.5066 23.47C20.7966 23.18 21.2766 23.18 21.5666 23.47L23.4566 25.36L27.7566 21.06C28.0466 20.77 28.5266 20.77 28.8166 21.06C29.1066 21.35 29.1066 21.83 28.8166 22.12L23.9866 26.95C23.8466 27.09 23.6566 27.17 23.4566 27.17Z" fill="#0F172A"/>
<path d="M16.5613 26.9814C16.5297 26.9338 16.4949 26.888 16.4578 26.8447H16.4587L15.1082 25.2549C15.0323 25.165 14.967 25.0674 14.9109 24.9648C14.966 25.0633 15.0305 25.1583 15.1062 25.2471V25.2461L16.4529 26.832V26.833C16.4853 26.8716 16.5172 26.9137 16.5476 26.959L16.5613 26.9814ZM16.5613 26.9814C16.5917 27.0283 16.6206 27.0781 16.6482 27.1299C16.6217 27.0801 16.5933 27.0298 16.5613 26.9814ZM16.9265 29.9873C17.0256 30.9591 17.8489 31.7196 18.8464 31.7197H20.5769C20.9278 31.7198 21.3969 31.8781 21.7117 32.0928L21.8367 32.1875L21.8376 32.1885L23.4177 33.5488L23.4197 33.5508C23.7854 33.8629 24.2515 33.9922 24.6765 33.9922C24.9229 33.9922 25.1821 33.9461 25.4285 33.8486C25.1912 33.9471 24.9324 34 24.6667 34C24.2578 34 23.8601 33.8807 23.5378 33.6543L23.405 33.5508L21.8289 32.1943C21.6433 32.0326 21.3991 31.9244 21.2234 31.8613C21.0437 31.7969 20.7967 31.7305 20.5662 31.7305H18.8464C17.7807 31.7304 16.9167 30.8655 16.9167 29.7998L16.9265 29.9873ZM28.6169 31.7295C28.6377 31.727 28.6583 31.7272 28.6785 31.7256C28.658 31.727 28.6374 31.7272 28.6169 31.7295ZM16.7664 27.3906C16.8582 27.6266 16.9167 27.8758 16.9167 28.0801V28.0898C16.9167 27.8576 16.8491 27.6119 16.7839 27.4336C16.7788 27.4195 16.7721 27.4055 16.7664 27.3906ZM16.6648 27.1621C16.6836 27.1987 16.7014 27.2362 16.7185 27.2744C16.7022 27.2377 16.6842 27.2001 16.6648 27.1621ZM18.2732 16.3564C17.7899 16.5071 17.3881 16.8436 17.1501 17.2812L17.0681 17.4492C17.2634 16.9872 17.6336 16.6173 18.0955 16.4219L18.2732 16.3564ZM28.658 16.2627C28.6444 16.2615 28.6307 16.2613 28.6169 16.2598C28.6306 16.2613 28.6443 16.2616 28.658 16.2627ZM20.9177 16.2275C20.8858 16.2345 20.8542 16.2399 20.823 16.2451C20.8549 16.2396 20.8867 16.2345 20.9177 16.2275ZM21.8435 15.8057C21.6315 15.9839 21.2922 16.1361 20.9734 16.2139C21.0717 16.1892 21.1631 16.1607 21.239 16.1328C21.4145 16.0683 21.6445 15.964 21.8191 15.8223L21.8279 15.8154L21.8357 15.8086L22.6492 15.1084L21.8435 15.8057ZM20.7439 16.2578C20.6857 16.265 20.6298 16.2695 20.5769 16.2695C20.6323 16.2695 20.6882 16.2647 20.7439 16.2578Z" fill="#0F172A" stroke="#0F172A" stroke-width="1.5"/>
</svg>
